<svg id="Layer_1" data-name="Layer 1" xmlns="http://www.w3.org/2000/svg" xmlns:xlink="http://www.w3.org/1999/xlink" viewBox="0 0 1080 1080"><defs><style>.cls-1,.cls-2,.cls-3,.cls-4{fill:none;}.cls-2,.cls-3{stroke:#3a6670;}.cls-2,.cls-3,.cls-4{stroke-miterlimit:10;}.cls-2{stroke-width:9px;}.cls-3{stroke-width:8px;}.cls-4{stroke:#4d4d4d;stroke-width:4px;}.cls-5{fill:#5e5e5e;}.cls-6{clip-path:url(#clip-path);}.cls-7{fill:#f7b583;}.cls-8{fill:#ffd2b0;}.cls-9{fill:#ffbf8f;}.cls-10{fill:#fff;}.cls-11,.cls-12{fill:#3a6670;}.cls-12{font-size:150.07px;font-family:Weather-Sunday---Personal-Use, Weather Sunday - Personal Use;}</style><clipPath id="clip-path"><circle class="cls-1" cx="555.01" cy="487.74" r="222.68"/></clipPath></defs><title>logo </title><path class="cls-2" d="M650.11,625.43c54.8,31.72,79.29-87.91,108.16-147.82,33-68.5,62.73-45.42,62.73-45.42"/><path class="cls-2" d="M417.08,401.65c-20.89,95.13-40.24,198.09,25.17,212.87,92.14,20.82,130.32-359.62,233.49-327"/><path class="cls-2" d="M673.19,286.71c121.92,38.55-88.81,300.66-23.08,338.72"/><path class="cls-3" d="M483.67,347.88c-19.2,31.82-44.5,61.92-71.52,55.48"/><path class="cls-4" d="M492.79,242.24c19.5,4.65,32.8,23.13,14.95,60.13-6,12.52-14.26,29.24-24.07,45.51"/><path class="cls-5" d="M501.22,244.25a9.57,9.57,0,1,1-7.09-11.53A9.57,9.57,0,0,1,501.22,244.25Z"/><path class="cls-3" d="M373.38,321.56c2.77,37.07,11.75,75.35,38.77,81.8"/><path class="cls-4" d="M413,223.19c-19.5-4.66-39.71,5.82-40.5,46.9-.26,13.9-.48,32.53.93,51.47"/><path class="cls-5" d="M404.52,221.17a9.57,9.57,0,1,0,11.53-7.09A9.57,9.57,0,0,0,404.52,221.17Z"/><g class="cls-6"><polygon class="cls-7" points="658.97 523.68 588.74 559.07 567.92 440.76 645.25 435.44 658.97 523.68"/><path class="cls-8" d="M457.16,433.67s36.58,5.68,50.4,4.16,46.94-8.39,51.75-6.76,90.81,96.63,92.85,102.37c2.53,7.08-9.75,19.21-19.15,15.51,0,0,5.85,6.73,1.49,11.12-3.11,3.14-15,17.5-25.27,9.25,0,0,6.22,7.32-10.86,16.8-9.89,5.49-16.58.66-16.58.66s-10.46,15.72-20.11,12c-5.59-2.17-130.34-90.39-130.34-90.39l24.85-73.08"/><path class="cls-7" d="M645.25,436.62l-66.68,12.82s-13.35,9.25-26.73,16.72c-8.09,4.53-16.2,8.39-21.38,9.16a15.88,15.88,0,0,1-12.49-3l14.6-27.23c12.95-11.77,28.08-24.9,32.92-26.72,9-3.36,49.16,14,49.16,14Z"/><path class="cls-7" d="M486.29,546c-4.06,4-11.26,3.32-16.06-1.55h0c-4.81-4.86-5.42-12.06-1.35-16.07l18.27-18.07c4.07-4,11.26-3.32,16.07,1.55h0c4.8,4.86,5.41,12.06,1.35,16.08Z"/><path class="cls-9" d="M501.86,525.18l-9.08,8.28c-3.78,0-9.86-6.76-10.46-10.45a13.8,13.8,0,0,1,.33-2.83l7.21-7.13a5.53,5.53,0,0,1,4-1.5,9.54,9.54,0,0,1,6.61,3C503.73,517.85,504.36,522.71,501.86,525.18Z"/><path class="cls-7" d="M506.62,563.4c-4.79,4.73-13.27,3.92-18.93-1.82h0c-5.67-5.74-6.38-14.22-1.6-19l21.55-21.3c4.79-4.73,13.27-3.91,18.94,1.82h0c5.66,5.74,6.38,14.23,1.59,19Z"/><path class="cls-7" d="M498.71,562.62a12,12,0,0,1-8.28-3.75c-4.17-4.21-4.89-10.27-1.63-13.5l21.55-21.29a7.23,7.23,0,0,1,5.21-2,12,12,0,0,1,8.28,3.75c4.16,4.21,4.89,10.27,1.62,13.5l-21.55,21.3A7.19,7.19,0,0,1,498.71,562.62Z"/><path class="cls-7" d="M527.92,580.1c-4.52,4.47-12.52,3.7-17.87-1.71h0c-5.36-5.42-6-13.43-1.51-17.9l20.35-20.1c4.52-4.47,12.52-3.7,17.87,1.71h0c5.36,5.42,6,13.43,1.51,17.9Z"/><path class="cls-7" d="M520.45,579.16a11.13,11.13,0,0,1-7.66-3.48c-3.85-3.9-4.54-9.48-1.54-12.45l20.35-20.1a6.56,6.56,0,0,1,4.76-1.79,11.07,11.07,0,0,1,7.66,3.47c3.85,3.9,4.54,9.48,1.54,12.45l-20.35,20.1A6.62,6.62,0,0,1,520.45,579.16Z"/><path class="cls-7" d="M548.05,593.79c-4,4-11.07,3.27-15.8-1.52h0c-4.73-4.78-5.33-11.86-1.33-15.81l18-17.77c4-4,11.07-3.27,15.8,1.51h0C569.43,565,570,572.07,566,576Z"/><path class="cls-7" d="M541.45,592.51a9.42,9.42,0,0,1-6.46-2.94,9.53,9.53,0,0,1-2.84-5.84,5.56,5.56,0,0,1,1.48-4.53l18-17.77A5.41,5.41,0,0,1,555.5,560a9.42,9.42,0,0,1,6.46,2.94c3.17,3.22,3.8,8,1.36,10.37l-18,17.77A5.42,5.42,0,0,1,541.45,592.51Z"/><path class="cls-7" d="M553.67,463.15l-1.83,3-6.45,9.49c-16.16,17.72-31.17,3.65-31.17,3.65l3.75-7,14.6-27.23Z"/><path class="cls-7" d="M567.87,449.21s.17.3.49.83c3.32,5.41,23.16,35.91,50.46,38,30,2.32-31.35-57.06-31.35-57.06"/><rect class="cls-10" x="647.97" y="429.22" width="29.12" height="105.35" transform="translate(-49.27 76.29) rotate(-6.35)"/><polygon class="cls-5" points="932.1 506.91 671.17 535.96 657.8 415.86 918.74 386.81 932.1 506.91"/><rect class="cls-10" x="393.97" y="466.05" width="105.34" height="29.12" transform="translate(-85.05 865.02) rotate(-82.96)"/><polygon class="cls-5" points="176.8 502.41 437.36 534.57 452.16 414.64 191.59 382.48 176.8 502.41"/><path class="cls-9" d="M522.91,538.16l-9.09,8.27c-3.77,0-9.85-6.76-10.45-10.45a13.26,13.26,0,0,1,.32-2.83L510.9,526a5.56,5.56,0,0,1,4-1.5,9.59,9.59,0,0,1,6.61,3C524.78,530.82,525.4,535.68,522.91,538.16Z"/><path class="cls-9" d="M544.57,555.46l-8.11,7.39c-3.37,0-8.8-6-9.34-9.33a12.25,12.25,0,0,1,.29-2.53l6.44-6.37a5,5,0,0,1,3.58-1.34,8.52,8.52,0,0,1,5.9,2.69C546.24,548.91,546.8,553.25,544.57,555.46Z"/><path class="cls-9" d="M562,572.54l-7.49,6.82c-3.11,0-8.12-5.57-8.62-8.61a11.51,11.51,0,0,1,.27-2.34l5.94-5.87a4.59,4.59,0,0,1,3.31-1.24,7.86,7.86,0,0,1,5.44,2.48C563.49,566.49,564,570.5,562,572.54Z"/><path class="cls-9" d="M514.22,479.3s6.26-.17,8.93-3.78,8.11-12.33,7.88-14.34-5-3.94-5-3.94Z"/></g><path class="cls-2" d="M673.19,286.71c121.92,38.55-88.81,300.66-23.08,338.72"/><path class="cls-2" d="M415.41,404.91c-11.72,58.78-29.21,122.08-9.2,181.57"/><path class="cls-11" d="M488.24,702.52h7v39.65h54.6V702.52h7v91h-7V748.67h-54.6v44.85h-7Z"/><path class="cls-11" d="M581.71,761.8c.13,16.77,8.58,27.17,21.06,27.17,12.22,0,16.38-6.89,18.72-12.22h6.63c-2.73,8.58-9.62,18.33-25.61,18.33-19.76,0-27.43-17-27.43-33.54,0-18.59,9.23-34.58,28.21-34.58,20,0,26.39,17.29,26.39,29.51,0,1.82,0,3.64-.13,5.33Zm41.21-5.72c-.13-12.87-7.15-23-19.89-23-13.39,0-19.5,9.36-20.93,23Z"/><path class="cls-11" d="M690.13,781.17a74.3,74.3,0,0,0,.91,12.35H684.8c-.52-1.56-.91-4.42-1.17-10-2.21,4.81-7.93,11.57-21.32,11.57-15.08,0-21.58-9.75-21.58-19.5,0-14.3,11-20.8,30.55-20.8h12.35v-6.63c0-6.5-2-15.21-16.77-15.21-13.13,0-15.08,6.89-16.51,12.22h-6.5c.78-7.15,5.2-18.2,23.14-18.2,14.82,0,23.14,6.24,23.14,20.54Zm-6.37-20.8H671c-14.43,0-23.4,3.77-23.4,15,0,8.19,5.85,13.78,15,13.78,18.59,0,21.19-12.35,21.19-26.39Z"/><path class="cls-11" d="M711.58,793.52V697.71h6.5v95.81Z"/><path class="cls-11" d="M730.56,728.52h12.09V708.24h6.5v20.28h15.47v6.11H749.15v42.25c0,7.28,1.56,11.44,7.8,11.44a24.57,24.57,0,0,0,6.76-.78v5.72a22.83,22.83,0,0,1-8.06,1.17c-8.32,0-13-4.16-13-14.56V734.63H730.56Z"/><path class="cls-11" d="M784,697.71v41.73c3.64-6.76,10-12.48,21.45-12.48,9.23,0,22,4.68,22,25.22v41.34h-6.5v-40c0-12.87-5.85-20.15-16.64-20.15-12.87,0-20.28,7.93-20.28,23.92v36.27h-6.5V697.71Z"/><text class="cls-12" transform="translate(212.5 775.52)">Co</text></svg>